<svg xmlns="http://www.w3.org/2000/svg" viewBox="0 0 100 100">
  <rect width="100" height="100" fill="#0a0a0a"/>
  <path d="M20 60 C 24 40, 40 26, 50 30 C 46 20, 54 12, 64 16 C 60 22, 62 28, 68 30 C 82 34, 88 48, 82 56 C 78 50, 70 48, 64 50 C 70 56, 72 66, 66 74 C 64 66, 58 60, 50 60 C 54 68, 52 78, 44 84 C 46 74, 42 66, 34 62 C 30 68, 22 68, 16 62 C 20 62, 22 60, 20 60Z" fill="none" stroke="#f2ede4" stroke-width="3" stroke-linecap="round" stroke-linejoin="round"/>
  <circle cx="58" cy="24" r="2.5" fill="#d81e1e"/>
</svg>
